# xmcd
#
# Track frame offsets: 
#        150
#        19822
#        36625
#        52750
#        74740
#        91530
#        105565
#        122020
#        142887
#
# Disc length: 2120 seconds
#
# Revision: 4
# Processed by: cddbd v1.5.2PL0 Copyright (c) Steve Scherf et al.
# Submitted via: ExactAudioCopy v0.95b3
#
DISCID=73084609
DTITLE=Brooks and Dunn - Super Hits
DYEAR=1999
DGENRE=Country
TTITLE0=Neon Moon
TTITLE1=Rock My World (Little Country Girl)
TTITLE2=A Man This Lonely
TTITLE3=You're Gonna Miss Me When I'm Gone
TTITLE4=If That's The Way You Want It
TTITLE5=Cool Drink of Water
TTITLE6=I Can't Put Out This Fire
TTITLE7=Our Time is Coming
TTITLE8=White Line Casanova
EXTD=
EXTT0=
EXTT1=
EXTT2=
EXTT3=
EXTT4=
EXTT5=
EXTT6=
EXTT7=
EXTT8=
PLAYORDER=
